<?xml version="1.0" standalone="no"?>
<!DOCTYPE svg PUBLIC "-//W3C//DTD SVG 20010904//EN"
 "http://www.w3.org/TR/2001/REC-SVG-20010904/DTD/svg10.dtd">
<svg version="1.0" xmlns="http://www.w3.org/2000/svg"
 width="150.000000pt" height="71.000000pt" viewBox="0 0 150.000000 71.000000"
 preserveAspectRatio="xMidYMid meet">

<g transform="translate(0.000000,71.000000) scale(0.100000,-0.100000)"
fill="#000000" stroke="none">
<path d="M261 639 c-10 -16 -34 -63 -52 -104 -19 -41 -36 -74 -39 -74 -3 0
-26 45 -52 100 -42 88 -50 99 -73 99 -26 0 -26 0 39 -126 l66 -125 0 -90 c0
-82 1 -89 20 -89 19 0 20 7 20 89 l0 89 64 125 c57 114 61 126 44 130 -14 4
-24 -3 -37 -24z"/>
<path d="M1282 650 c-34 -15 -47 -29 -63 -66 -18 -40 -21 -62 -17 -155 3 -89
7 -113 24 -136 46 -62 136 -80 205 -41 43 24 46 30 24 48 -12 10 -20 8 -41 -9
-41 -32 -98 -28 -135 8 -29 29 -29 31 -29 141 0 133 12 164 74 182 34 11 43 9
79 -10 30 -17 43 -19 53 -11 18 15 10 25 -36 49 -49 25 -83 25 -138 0z"/>
<path d="M452 643 c3 -15 16 -19 66 -21 l62 -3 0 -194 c0 -188 1 -195 20 -195
19 0 20 7 20 195 l0 195 65 0 c58 0 65 2 65 20 0 19 -7 20 -151 20 -138 0
-150 -1 -147 -17z"/>
<path d="M850 445 l0 -215 120 0 c113 0 120 1 120 20 0 18 -8 20 -97 22 l-98
3 -3 54 c-6 100 -5 101 98 101 83 0 90 2 90 20 0 18 -8 20 -92 22 l-93 3 0 70
0 70 98 3 c89 2 97 4 97 22 0 19 -7 20 -120 20 l-120 0 0 -215z"/>
<path d="M310 450 c0 -18 7 -20 80 -20 73 0 80 2 80 20 0 18 -7 20 -80 20 -73
0 -80 -2 -80 -20z"/>
<path d="M1330 150 c0 -5 5 -10 10 -10 6 0 10 5 10 10 0 6 -4 10 -10 10 -5 0
-10 -4 -10 -10z"/>
<path d="M670 110 c-11 -11 -20 -30 -20 -42 1 -22 31 -68 45 -68 11 0 35 28
35 40 0 7 -6 5 -15 -4 -24 -23 -45 -9 -45 30 0 37 23 55 43 35 6 -6 15 -11 20
-11 13 0 -2 19 -23 30 -15 8 -24 6 -40 -10z"/>
<path d="M90 117 c0 -5 5 -18 12 -30 6 -12 15 -38 19 -57 l7 -35 1 35 c1 19 8
44 16 54 8 11 15 25 15 30 0 6 -9 0 -19 -13 l-18 -24 -17 24 c-9 13 -16 20
-16 16z"/>
<path d="M191 58 c1 -35 4 -51 6 -37 3 20 11 28 34 33 55 11 45 66 -12 66
l-29 0 1 -62z m62 38 c7 -19 -1 -26 -30 -26 -16 0 -23 6 -23 20 0 14 7 20 24
20 13 0 26 -6 29 -14z"/>
<path d="M302 58 c0 -35 3 -49 5 -31 3 26 9 33 31 36 l27 4 -27 2 c-21 1 -28
6 -28 20 0 15 8 21 33 24 31 4 31 4 -5 5 l-38 2 2 -62z"/>
<path d="M462 113 c13 -3 18 -18 21 -61 l3 -57 2 57 c2 50 5 57 25 61 12 2 2
4 -23 4 -25 1 -37 -1 -28 -4z"/>
<path d="M557 113 c-9 -8 -9 -76 -1 -97 4 -10 18 -16 40 -16 25 0 32 4 28 15
-4 10 -14 13 -30 9 -19 -5 -24 -2 -24 14 0 15 8 22 28 25 l27 4 -27 2 c-21 1
-28 6 -28 20 0 15 8 21 33 24 l32 4 -36 1 c-20 1 -39 -1 -42 -5z"/>
<path d="M772 60 l1 -65 6 50 6 50 22 -30 c12 -17 23 -24 23 -18 0 7 -13 27
-30 45 l-29 33 1 -65z"/>
<path d="M838 73 c-5 -53 0 -76 13 -67 12 7 12 114 0 114 -5 0 -11 -21 -13
-47z"/>
<path d="M902 108 c-28 -28 -1 -108 36 -108 16 0 33 47 30 81 -2 28 -8 35 -28
37 -14 2 -31 -3 -38 -10z m56 -31 c4 -33 -13 -58 -33 -50 -21 7 -28 39 -15 63
16 29 44 21 48 -13z"/>
<path d="M1012 63 l-2 -63 35 0 c43 0 46 16 6 25 -27 6 -30 11 -34 53 -3 42
-4 40 -5 -15z"/>
<path d="M1106 104 c-10 -26 -6 -68 8 -87 13 -17 52 -25 42 -8 -3 5 1 11 9 15
18 7 20 67 3 84 -17 17 -55 15 -62 -4z m54 -9 c7 -9 10 -25 6 -41 -5 -19 -12
-25 -29 -22 -25 3 -35 41 -17 64 16 18 24 18 40 -1z"/>
<path d="M1222 108 c-18 -18 -14 -73 6 -91 23 -21 32 -21 48 1 21 28 17 52 -8
51 -17 -1 -19 -2 -5 -6 21 -6 22 -17 2 -33 -29 -24 -56 20 -39 64 7 19 35 21
53 4 10 -11 11 -10 6 5 -8 20 -45 23 -63 5z"/>
<path d="M1333 60 c0 -36 2 -50 4 -32 2 17 2 47 0 65 -2 17 -4 3 -4 -33z"/>
<path d="M1383 63 c-23 -57 -25 -83 -3 -44 14 28 56 28 65 0 4 -11 9 -18 12
-15 7 6 -37 116 -46 116 -3 0 -16 -26 -28 -57z m47 -5 c0 -5 -7 -8 -15 -8 -15
0 -20 21 -8 33 7 7 23 -11 23 -25z"/>
</g>
</svg>
